<svg width="16" height="16" viewBox="0 0 16 16" fill="none" xmlns="http://www.w3.org/2000/svg">
<path d="M2.5 3C2.5 2.44772 2.94772 2 3.5 2H5.5C6.69347 2 7.67833 2.83755 7.93586 3.95336C7.97856 4.13921 8.02144 4.13921 8.06414 3.95336C8.32167 2.83755 9.30653 2 10.5 2H12.5C13.0523 2 13.5 2.44772 13.5 3V11C13.5 11.5523 13.0523 12 12.5 12H10C8.89543 12 8 12.8954 8 14C8 12.8954 7.10457 12 6 12H3.5C2.94772 12 2.5 11.5523 2.5 11V3Z" stroke="currentColor" stroke-width="1.2"/>
<path d="M8 4V14" stroke="currentColor" stroke-width="1.2"/>
</svg>
