<svg width="16" height="16" viewBox="0 0 16 16" fill="none" xmlns="http://www.w3.org/2000/svg">
<path d="M13.07 3.26C12.14 2.83 11.14 2.51 10.1 2.33C9.97 2.56 9.82 2.86 9.72 3.1C8.61 2.94 7.51 2.94 6.42 3.1C6.32 2.86 6.17 2.56 6.03 2.33C4.99 2.51 3.99 2.83 3.06 3.27C1.21 6.07 0.72 8.8 0.96 11.49C2.21 12.42 3.42 12.97 4.61 13.33C4.9 12.93 5.16 12.51 5.38 12.06C4.95 11.9 4.54 11.7 4.16 11.46C4.26 11.39 4.36 11.31 4.45 11.23C6.74 12.31 9.29 12.31 11.55 11.23C11.65 11.31 11.75 11.39 11.84 11.46C11.46 11.7 11.05 11.9 10.62 12.06C10.84 12.51 11.1 12.94 11.39 13.33C12.58 12.97 13.79 12.42 15.04 11.49C15.33 8.36 14.48 5.66 13.07 3.26ZM5.52 9.8C4.82 9.8 4.24 9.14 4.24 8.34C4.24 7.54 4.8 6.88 5.52 6.88C6.23 6.88 6.82 7.54 6.8 8.34C6.8 9.14 6.23 9.8 5.52 9.8ZM10.48 9.8C9.78 9.8 9.2 9.14 9.2 8.34C9.2 7.54 9.76 6.88 10.48 6.88C11.19 6.88 11.78 7.54 11.76 8.34C11.76 9.14 11.19 9.8 10.48 9.8Z" fill="currentColor"/>
</svg>
