<svg width="16" height="16" viewBox="0 0 16 16" fill="none" xmlns="http://www.w3.org/2000/svg">
<path fill-rule="evenodd" clip-rule="evenodd" d="M8 1C4.13 1 1 4.13 1 8C1 11.1 3.01 13.7 5.77 14.67C6.11 14.73 6.24 14.52 6.24 14.34C6.24 14.18 6.23 13.68 6.23 13.15C4.5 13.51 4.08 12.83 3.96 12.47C3.89 12.29 3.57 11.73 3.29 11.57C3.06 11.44 2.72 11.08 3.28 11.07C3.81 11.06 4.19 11.57 4.32 11.78C4.92 12.81 5.87 12.53 6.26 12.35C6.32 11.94 6.49 11.66 6.68 11.5C5.17 11.33 3.59 10.78 3.59 8.15C3.59 7.38 3.89 6.74 4.34 6.25C4.27 6.08 4.03 5.35 4.41 4.38C4.41 4.38 4.97 4.2 6.24 5.1C6.78 4.95 7.35 4.88 7.92 4.87C8.49 4.88 9.06 4.95 9.6 5.1C10.87 4.19 11.43 4.38 11.43 4.38C11.81 5.35 11.57 6.08 11.5 6.25C11.95 6.74 12.25 7.38 12.25 8.15C12.25 10.79 10.66 11.33 9.15 11.5C9.39 11.7 9.6 12.09 9.6 12.69C9.6 13.54 9.59 14.22 9.59 14.35C9.59 14.53 9.72 14.74 10.06 14.68C12.99 13.7 15 11.09 15 8C15 4.13 11.87 1 8 1Z" fill="currentColor"/>
</svg>
